<?xml version="1.0" encoding="UTF-8"?>
<svg version="1.1" xmlns="http://www.w3.org/2000/svg" width="1772" height="2000">
<path d="M0 0 C3.92387566 1.30795855 4.2734936 2.7373968 6.265625 6.30859375 C6.90064941 7.43491211 7.53567383 8.56123047 8.18994141 9.72167969 C8.87665096 10.96027351 9.56333652 12.19888063 10.25 13.4375 C10.96558822 14.71185089 11.6822369 15.98560683 12.39990234 17.25878906 C13.87955882 19.88474361 15.35548908 22.51273935 16.82910156 25.14208984 C20.04662138 30.87225953 23.33470028 36.56135451 26.625 42.25 C27.24149414 43.31790771 27.85798828 44.38581543 28.49316406 45.48608398 C33.21531287 53.66051316 37.9706957 61.81531944 42.7331543 69.96630859 C50.17449495 82.71006139 57.53019894 95.50323051 64.89550781 108.29101562 C71.56956312 119.87681766 78.25464084 131.45553353 85 143 C93.02267511 156.73055188 100.95858259 170.51077966 108.89550781 184.29101562 C115.56956312 195.87681766 122.25464084 207.45553353 129 219 C137.02267511 232.73055188 144.95858259 246.51077966 152.89550781 260.29101562 C159.56956312 271.87681766 166.25464084 283.45553353 173 295 C181.02267511 308.73055188 188.95858259 322.51077966 196.89550781 336.29101562 C203.56956312 347.87681766 210.25464084 359.45553353 217 371 C225.02267511 384.73055188 232.95858259 398.51077966 240.89550781 412.29101562 C247.56956312 423.87681766 254.25464084 435.45553353 261 447 C269.02267511 460.73055188 276.95858259 474.51077966 284.89550781 488.29101562 C291.56956312 499.87681766 298.25464084 511.45553353 305 523 C313.02267511 536.73055188 320.95858259 550.51077966 328.89550781 564.29101562 C335.56956312 575.87681766 342.25464084 587.45553353 349 599 C357.02267511 612.73055188 364.95858259 626.51077966 372.89550781 640.29101562 C380.13525083 652.8588212 387.39699071 665.41284121 394.71533203 677.93505859 C399.76343976 686.5789613 404.76916794 695.24692913 409.76367188 703.921875 C410.63668945 705.4378125 410.63668945 705.4378125 411.52734375 706.984375 C412.09050293 707.97244141 412.65366211 708.96050781 413.23388672 709.97851562 C414.47109264 712.09513996 415.75291347 714.18602102 417.06689453 716.25585938 C417.7267334 717.31095703 418.38657227 718.36605469 419.06640625 719.453125 C419.98015015 720.87093262 419.98015015 720.87093262 420.91235352 722.31738281 C422 725 422 725 421.3425293 727.55444336 C420.67797729 728.7649939 420.67797729 728.7649939 420 730 C419.60458008 730.75837158 419.20916016 731.51674316 418.80175781 732.2980957 C418.35670898 733.08273193 417.91166016 733.86736816 417.453125 734.67578125 C416.94539551 735.57337158 416.43766602 736.47096191 415.91455078 737.39575195 C415.36524902 738.35827881 414.81594727 739.32080566 414.25 740.3125 C413.67362793 741.32723389 413.09725586 742.34196777 412.50341797 743.38745117 C407.27103185 752.57556641 401.94285446 761.7069563 396.6015625 770.83203125 C392.87369234 777.20565088 389.18456223 783.60127367 385.5 790 C380.12100102 799.33871324 374.707405 808.65640408 369.26953125 817.9609375 C364.98777878 825.29283723 360.73789061 832.64267238 356.5 840 C351.1208592 849.33863207 345.70740553 858.65640317 340.26953125 867.9609375 C335.98777878 875.29283723 331.73789061 882.64267238 327.5 890 C322.1208592 899.33863207 316.70740553 908.65640317 311.26953125 917.9609375 C306.98777878 925.29283723 302.73789061 932.64267238 298.5 940 C293.1208592 949.33863207 287.70740553 958.65640317 282.26953125 967.9609375 C277.98777878 975.29283723 273.73789061 982.64267238 269.5 990 C264.69148158 998.34798456 259.86094985 1006.68243572 255 1015 C250.01717671 1023.52761255 245.06031299 1032.06979812 240.125 1040.625 C239.53074219 1041.65496094 238.93648437 1042.68492188 238.32421875 1043.74609375 C235.13051691 1049.28705974 231.94868436 1054.83467842 228.77685547 1060.38818359 C228.41140121 1061.02789597 228.04594696 1061.66760834 227.66941833 1062.32670593 C226.77953816 1063.88442831 225.88975847 1065.4422081 225 1067 C163.1615017 1067.03428614 101.3230023 1067.06608413 39.48449707 1067.08468628 C38.11120173 1067.08510045 38.11120173 1067.08510045 36.71016305 1067.08552299 C16.81223792 1067.09150909 -3.08568731 1067.09704941 -22.98361269 1067.10213066 C-32.74184207 1067.10462529 -42.50007143 1067.1072184 -52.25830078 1067.10986328 C-53.22935123 1067.1101248 -54.20040168 1067.11038632 -55.2008779 1067.11065576 C-86.66372321 1067.11917531 -118.12656133 1067.13419559 -149.58940228 1067.15259444 C-181.92712155 1067.17147051 -214.26483683 1067.18377342 -246.60256151 1067.18782998 C-251.17220024 1067.18840627 -255.74183895 1067.18905755 -260.31147766 1067.18975449 C-261.21082986 1067.18988933 -262.11018205 1067.19002418 -263.03678734 1067.19016311 C-277.50183674 1067.19252465 -291.96687382 1067.20179565 -306.4319182 1067.21366407 C-320.98145201 1067.22545387 -335.53097363 1067.22993212 -350.08051205 1067.22700275 C-358.71990884 1067.225484 -367.35926095 1067.2295156 -375.99864965 1067.24159509 C-381.77784822 1067.24912185 -387.55701769 1067.24930841 -393.3362183 1067.24366363 C-396.62394036 1067.24065845 -399.9115618 1067.24183597 -403.19927806 1067.24976636 C-436.23376051 1067.32479656 -436.23376051 1067.32479656 -451.8125 1062.5 C-453.0507251 1062.12077393 -453.0507251 1062.12077393 -454.31396484 1061.73388672 C-467.78797826 1057.3584764 -480.49070346 1050.53343329 -491 1041 C-492.2375 1039.95585937 -492.2375 1039.95585937 -493.5 1038.890625 C-515.5961075 1019.89336185 -529.19536198 991.67956167 -531.5925293 962.78198242 C-533.77555653 931.14670257 -522.63223151 906.13983599 -506.84375 879.51171875 C-503.16541598 873.30594629 -499.57892377 867.05028067 -496.01245117 860.77993774 C-490.72760588 851.48892611 -485.40112933 842.22407164 -480 833 C-474.9681021 824.4048271 -469.99610876 815.77687778 -465.0625 807.125 C-458.03396493 794.79974804 -450.95759566 782.50277933 -443.85888672 770.21777344 C-440.73675395 764.81329355 -437.61858796 759.40652588 -434.5 754 C-433.25001878 751.8333225 -432.00001879 749.66665583 -430.75 747.5 C-430.13125 746.4275 -429.5125 745.355 -428.875 744.25 C-408.25 708.5 -408.25 708.5 -406.37524414 705.25048828 C-405.1243552 703.08223736 -403.87354148 700.91394303 -402.62280273 698.74560547 C-399.51201665 693.35282085 -396.39995762 687.96077907 -393.28515625 682.5703125 C-386.46497363 670.76370516 -379.6767674 658.93973 -372.92263794 647.09527588 C-367.76583392 638.05528292 -362.54456231 629.05474679 -357.28662109 620.07324219 C-352.83083656 612.45094222 -348.43602854 604.79468689 -344.0625 597.125 C-337.03396493 584.79974804 -329.95759566 572.50277933 -322.85888672 560.21777344 C-319.73675395 554.81329355 -316.61858796 549.40652588 -313.5 544 C-312.25001878 541.8333225 -311.00001879 539.66665583 -309.75 537.5 C-308.821875 535.89125 -308.821875 535.89125 -307.875 534.25 C-272.25 472.5 -272.25 472.5 -270.37524414 469.25048828 C-269.1243552 467.08223736 -267.87354148 464.91394303 -266.62280273 462.74560547 C-263.51201665 457.35282085 -260.39995762 451.96077907 -257.28515625 446.5703125 C-250.46497363 434.76370516 -243.6767674 422.93973 -236.92263794 411.09527588 C-231.76583392 402.05528292 -226.54456231 393.05474679 -221.28662109 384.07324219 C-216.83083656 376.45094222 -212.43602854 368.79468689 -208.0625 361.125 C-201.03396493 348.79974804 -193.95759566 336.50277933 -186.85888672 324.21777344 C-183.73675395 318.81329355 -180.61858796 313.40652588 -177.5 308 C-176.25001878 305.8333225 -175.00001879 303.66665583 -173.75 301.5 C-173.13125 300.4275 -172.5125 299.355 -171.875 298.25 C-136.25 236.5 -136.25 236.5 -134.37524414 233.25048828 C-133.1243552 231.08223736 -131.87354148 228.91394303 -130.62280273 226.74560547 C-127.51201665 221.35282085 -124.39995762 215.96077907 -121.28515625 210.5703125 C-114.46497363 198.76370516 -107.6767674 186.93973 -100.92263794 175.09527588 C-95.76583392 166.05528292 -90.54456231 157.05474679 -85.28662109 148.07324219 C-80.83083656 140.45094222 -76.43602854 132.79468689 -72.0625 125.125 C-65.03396493 112.79974804 -57.95759566 100.50277933 -50.85888672 88.21777344 C-47.73675395 82.81329355 -44.61858796 77.40652588 -41.5 72 C-40.25001878 69.8333225 -39.00001879 67.66665583 -37.75 65.5 C-37.13125 64.4275 -36.5125 63.355 -35.875 62.25 C-30.25000001 52.50000002 -30.25000001 52.50000002 -28.37231445 49.24536133 C-27.13124746 47.09416776 -25.89019907 44.94296345 -24.64916992 42.79174805 C-21.73501656 37.74037001 -18.82068182 32.6890969 -15.90567017 27.63821411 C-14.87326522 25.84933082 -13.84092044 24.06041283 -12.80859375 22.27148438 C-11.51314052 20.02662364 -10.2175743 17.7818281 -8.921875 15.53710938 C-5.93692086 10.36428226 -2.95754683 5.18854991 0 0 Z " fill="#FED337" transform="translate(554,495)"/>
<path d="M0 0 C13.62901741 12.2535723 22.25573558 27.72764479 31.06591797 43.59423828 C34.37792372 49.55450384 37.80175733 55.44449736 41.25341797 61.32470703 C46.34946113 70.02315008 51.38516999 78.75444525 56.37841797 87.51220703 C63.40673904 99.83758033 70.48332316 112.13442917 77.58203125 124.41943359 C80.70416402 129.82391349 83.82233001 135.23068115 86.94091797 140.63720703 C88.19089918 142.80388453 89.44089918 144.9705512 90.69091797 147.13720703 C108.19091797 177.47054036 125.69091797 207.8038737 143.19091797 238.13720703 C143.8095874 239.2095459 144.42825684 240.28188477 145.06567383 241.38671875 C146.31656277 243.55496967 147.56737648 245.723264 148.81811523 247.89160156 C151.92890132 253.28438618 155.04096035 258.67642796 158.15576172 264.06689453 C164.97594434 275.87350187 171.76415057 287.69747703 178.51828003 299.54193115 C183.1148602 307.59983915 187.75415956 315.63138489 192.44091797 323.63720703 C197.47272487 332.23243375 202.44480869 340.86032833 207.37841797 349.51220703 C214.40695304 361.83745899 221.48332231 374.1344277 228.58203125 386.41943359 C231.70416402 391.82391349 234.82233001 397.23068115 237.94091797 402.63720703 C239.19089918 404.80388453 240.44089918 406.9705512 241.69091797 409.13720703 C254.19091797 430.8038737 266.69091797 452.47054036 279.19091797 474.13720703 C279.8095874 475.2095459 280.42825684 476.28188477 281.06567383 477.38671875 C282.31656277 479.55496967 283.56737648 481.723264 284.81811523 483.89160156 C287.92890132 489.28438618 291.04096035 494.67642796 294.15576172 500.06689453 C300.97323641 511.86881409 307.75886052 523.68803177 314.51022339 535.52783203 C319.27584668 543.88221319 324.08844817 552.20795328 328.94091797 560.51220703 C329.80257568 561.99333984 329.80257568 561.99333984 330.68164062 563.50439453 C333.12598463 567.70246063 335.58207817 571.88831508 338.12451172 576.02783203 C338.51251953 576.67123535 338.90052734 577.31463867 339.30029297 577.97753906 C340.28219399 579.60292322 341.28060548 581.21830432 342.28076172 582.83251953 C343.73131145 586.33923571 343.31133187 587.97382597 342.44091797 591.63720703 C341.18847656 594.29248047 341.18847656 594.29248047 339.58935547 596.99658203 C338.9930835 598.0163916 338.39681152 599.03620117 337.7824707 600.08691406 C337.1335083 601.17601074 336.4845459 602.26510742 335.81591797 603.38720703 C335.1366358 604.54271982 334.45834924 605.6988184 333.78100586 606.85546875 C332.37310203 609.25795594 330.96095106 611.65786945 329.54589844 614.05615234 C326.28034758 619.59992916 323.08427994 625.18378791 319.87841797 630.76220703 C314.51991786 640.05918383 309.12456968 649.3341043 303.71020508 658.59863281 C299.4284688 665.93033182 295.1787179 673.28003684 290.94091797 680.63720703 C285.56177717 689.9758391 280.1483235 699.29361021 274.71044922 708.59814453 C270.42869675 715.93004426 266.17880858 723.27987941 261.94091797 730.63720703 C256.56177717 739.9758391 251.1483235 749.29361021 245.71044922 758.59814453 C241.42869675 765.93004426 237.17880858 773.27987941 232.94091797 780.63720703 C227.56177717 789.9758391 222.1483235 799.29361021 216.71044922 808.59814453 C212.42869675 815.93004426 208.17880858 823.27987941 203.94091797 830.63720703 C198.56177717 839.9758391 193.1483235 849.29361021 187.71044922 858.59814453 C183.42869675 865.93004426 179.17880858 873.27987941 174.94091797 880.63720703 C169.56177717 889.9758391 164.1483235 899.29361021 158.71044922 908.59814453 C154.42869675 915.93004426 150.17880858 923.27987941 145.94091797 930.63720703 C140.56767307 939.96560333 135.16088866 949.27359697 129.72802734 958.56738281 C126.61782368 963.89224169 123.51999506 969.22397498 120.44091797 974.56689453 C119.93854614 975.43861298 119.93854614 975.43861298 119.42602539 976.32794189 C117.81217911 979.12931886 116.19994908 981.93161491 114.58935547 984.73486328 C110.94002338 991.07698446 107.23079615 997.37800804 103.44091797 1003.63720703 C99.61742345 1002.36270886 99.30461817 1001.15644239 97.35888672 997.69580078 C96.76398438 996.64972656 96.16908203 995.60365234 95.55615234 994.52587891 C94.60192383 992.81754883 94.60192383 992.81754883 93.62841797 991.07470703 C92.9569261 989.8885741 92.2843853 988.70303442 91.61083984 987.51806641 C90.22479122 985.07887263 88.84234812 982.63768749 87.46191406 980.1953125 C84.50681391 974.97903444 81.47295254 969.8090165 78.44091797 964.63720703 C70.41604842 950.90795307 62.48232438 937.12640827 54.54541016 923.34619141 C47.87135485 911.76038937 41.18627712 900.1816735 34.44091797 888.63720703 C26.41824286 874.90665515 18.48233538 861.12642737 10.54541016 847.34619141 C3.87135485 835.76038937 -2.81372288 824.1816735 -9.55908203 812.63720703 C-17.58175714 798.90665515 -25.51766462 785.12642737 -33.45458984 771.34619141 C-40.12864515 759.76038937 -46.81372288 748.1816735 -53.55908203 736.63720703 C-61.58175714 722.90665515 -69.51766462 709.12642737 -77.45458984 695.34619141 C-84.12864515 683.76038937 -90.81372288 672.1816735 -97.55908203 660.63720703 C-105.58175714 646.90665515 -113.51766462 633.12642737 -121.45458984 619.34619141 C-128.12864515 607.76038937 -134.81372288 596.1816735 -141.55908203 584.63720703 C-149.58175714 570.90665515 -157.51766462 557.12642737 -165.45458984 543.34619141 C-172.12864515 531.76038937 -178.81372288 520.1816735 -185.55908203 508.63720703 C-193.58175714 494.90665515 -201.51766462 481.12642737 -209.45458984 467.34619141 C-216.12864515 455.76038937 -222.81372288 444.1816735 -229.55908203 432.63720703 C-236.30609397 421.08991187 -242.99247521 409.50818676 -249.66796875 397.91943359 C-252.79588349 392.49060765 -255.92761934 387.06398696 -259.05908203 381.63720703 C-262.82272123 375.11487428 -266.58552825 368.59206941 -270.34423828 362.06689453 C-276.95623056 350.59153603 -283.59510105 339.13277648 -290.27661133 327.69775391 C-295.94756413 317.98573638 -301.57530275 308.24911647 -307.17626953 298.49658203 C-309.19340981 294.98821883 -311.23089477 291.49567033 -313.31689453 288.02783203 C-313.70506348 287.37508301 -314.09323242 286.72233398 -314.49316406 286.04980469 C-315.46490126 284.42015289 -316.44884947 282.79779812 -317.43408203 281.17626953 C-318.75238565 278.2009315 -318.58169138 277.62678971 -317.55908203 274.63720703 C-316.71653694 272.94127689 -315.82058492 271.27147407 -314.89111328 269.62158203 C-314.05688843 268.13476929 -314.05688843 268.13476929 -313.20581055 266.61791992 C-312.60051514 265.55178467 -311.99521973 264.48564941 -311.37158203 263.38720703 C-310.74372803 262.274021 -310.11587402 261.16083496 -309.46899414 260.01391602 C-304.10605807 250.53460032 -298.62913773 241.12292245 -293.12158203 231.72705078 C-289.42694893 225.42150284 -285.77055522 219.09426267 -282.12158203 212.76220703 C-281.49904541 211.68205322 -280.87650879 210.60189941 -280.23510742 209.48901367 C-278.97331377 207.29924369 -277.71167669 205.10938348 -276.45019531 202.91943359 C-273.32228055 197.49060761 -270.19049755 192.06401422 -267.05908203 186.63720703 C-265.80906324 184.4705512 -264.55906325 182.30388453 -263.30908203 180.13720703 C-255.80908203 167.13720703 -255.80908203 167.13720703 -253.93432617 163.88769531 C-252.68343723 161.71944439 -251.43262352 159.55115006 -250.18188477 157.3828125 C-247.07109868 151.99002788 -243.95903965 146.5979861 -240.84423828 141.20751953 C-234.02405566 129.4009122 -227.23584943 117.57693703 -220.48171997 105.73248291 C-215.32653928 96.69533568 -210.10810836 87.69691598 -204.85009766 78.71923828 C-200.69253831 71.60948221 -196.59582174 64.46636731 -192.52053833 57.30929565 C-190.17932745 53.20036693 -187.8299029 49.09613845 -185.47998047 44.9921875 C-184.22899303 42.8072524 -182.97956387 40.62142413 -181.73193359 38.43457031 C-175.66582895 27.8298338 -169.77797631 17.73368345 -161.55908203 8.63720703 C-160.81851563 7.70328125 -160.81851563 7.70328125 -160.06298828 6.75048828 C-143.59378701 -14.01096942 -115.35933969 -25.57288802 -89.78173828 -28.70263672 C-56.77619234 -32.08188616 -24.99292593 -21.84630638 0 0 Z " fill="#2AC573" transform="translate(960.55908203125,66.36279296875)"/>
<path d="M0 0 C0.66 0 1.32 0 2 0 C2.35078613 0.63164063 2.70157227 1.26328125 3.06298828 1.9140625 C10.70985139 15.66702135 18.48090039 29.33369051 26.4375 42.91015625 C32.04803561 52.48553229 37.57397912 62.10987716 43.11328125 71.7265625 C44.9796838 74.9647516 46.84873763 78.20139438 48.71875 81.4375 C55.53821105 93.24117161 62.32467146 105.06279326 69.07736206 116.90472412 C73.67394223 124.96263212 78.3132416 132.99417786 83 141 C88.0318069 149.59522672 93.00389072 158.2231213 97.9375 166.875 C104.96603507 179.20025196 112.04240434 191.49722067 119.14111328 203.78222656 C122.26324605 209.18670645 125.38141204 214.59347412 128.5 220 C129.74998122 222.1666775 130.99998121 224.33334417 132.25 226.5 C144.75 248.16666667 157.25 269.83333333 169.75 291.5 C170.36866943 292.57233887 170.98733887 293.64467773 171.62475586 294.74951172 C172.8756448 296.91776264 174.12645852 299.08605697 175.37719727 301.25439453 C178.48798335 306.64717915 181.60004238 312.03922093 184.71484375 317.4296875 C191.53502637 329.23629484 198.3232326 341.06027 205.07736206 352.90472412 C209.67394223 360.96263212 214.3132416 368.99417786 219 377 C224.0318069 385.59522672 229.00389072 394.2231213 233.9375 402.875 C240.96603507 415.20025196 248.04240434 427.49722067 255.14111328 439.78222656 C258.26324605 445.18670645 261.38141204 450.59347412 264.5 456 C265.74998122 458.1666775 266.99998121 460.33334417 268.25 462.5 C280.75 484.16666667 293.25 505.83333333 305.75 527.5 C306.36915283 528.57314453 306.98830566 529.64628906 307.6262207 530.75195312 C308.87233969 532.91200093 310.11827161 535.07215667 311.36401367 537.23242188 C314.54684409 542.75127079 317.73320911 548.26803002 320.92578125 553.78125 C324.62991254 560.18022006 328.31907813 566.5876558 332 573 C332.49935059 573.86657227 332.99870117 574.73314453 333.51318359 575.62597656 C350.49387066 605.1724901 360.07416095 636.44571114 351.25390625 670.68359375 C346.27538748 688.30747137 338.49281041 704.43358869 326 718 C325.28070312 718.78286377 325.28070312 718.78286377 324.546875 719.58154297 C303.7687688 741.94030687 276.39051654 754.52238351 245.88191551 756.16820906 C238.09479345 756.41746534 230.30675022 756.39736509 222.51650163 756.36679858 C218.98112744 756.35634347 215.44577797 756.36363687 211.91039777 756.36853105 C205.73410168 756.3747075 199.55789291 756.36989833 193.38160706 756.35761642 C184.19791718 756.33940528 175.01428158 756.33861879 165.83057694 756.34124239 C150.37723597 756.3451715 134.92393367 756.33520791 119.47060394 756.31719017 C104.18081215 756.299409 88.89103649 756.28788627 73.60123444 756.28463173 C72.64880264 756.28442551 71.69637085 756.28421929 70.71507749 756.28400682 C65.87770578 756.28299175 61.04033405 756.28208763 56.20296231 756.2812262 C21.98393007 756.27493325 -12.23508115 756.25474435 -46.45410156 756.22631836 C-79.68717335 756.19874336 -112.92023937 756.17750316 -146.15332031 756.16479492 C-147.17860026 756.16440034 -148.2038802 756.16400576 -149.26022923 756.16359923 C-159.55697594 756.1596435 -169.8537227 756.15581608 -180.15046949 756.15208265 C-201.12413736 756.14447502 -222.09780485 756.13601127 -243.07147217 756.12702942 C-244.03570275 756.12661755 -244.99993333 756.12620568 -245.99338302 756.12578133 C-310.32893075 756.09820238 -374.66446682 756.0506695 -439 756 C-438.06691809 754.11380732 -437.13147286 752.22878366 -436.19506836 750.34423828 C-435.67440292 749.29438751 -435.15373749 748.24453674 -434.61729431 747.16287231 C-432.12352356 742.28591305 -429.35521419 737.58514206 -426.5625 732.875 C-425.32095754 730.76470934 -424.08009537 728.65401832 -422.83984375 726.54296875 C-421.88827393 724.92527588 -421.88827393 724.92527588 -420.91748047 723.27490234 C-417.78836451 717.93062408 -414.70945158 712.55763431 -411.625 707.1875 C-406.50768823 698.29071835 -401.31341961 689.44352394 -396.0625 680.625 C-389.88090391 670.23961775 -383.84146782 659.78238963 -377.86401367 649.27880859 C-371.88975209 638.78334836 -365.81507116 628.34852473 -359.71337891 617.92675781 C-356.82618822 612.9949194 -353.94352583 608.06044184 -351.0625 603.125 C-350.48741699 602.13983398 -349.91233398 601.15466797 -349.31982422 600.13964844 C-345.02387801 592.7727766 -340.7571643 585.38933859 -336.5 578 C-328.80871162 564.64990822 -321.0451709 551.34266958 -313.27050781 538.04101562 C-306.01146858 525.61917409 -298.78695829 513.17841579 -291.60571289 500.71142578 C-286.85453949 492.46802621 -282.06710381 484.24636178 -277.26513672 476.0324707 C-273.02169905 468.76794811 -268.81877283 461.48078008 -264.625 454.1875 C-259.50721336 445.2909868 -254.31342418 436.44353161 -249.0625 427.625 C-242.88090391 417.23961775 -236.84146782 406.78238963 -230.86401367 396.27880859 C-224.88975209 385.78334836 -218.81507116 375.34852473 -212.71337891 364.92675781 C-209.82618822 359.9949194 -206.94352583 355.06044184 -204.0625 350.125 C-203.48741699 349.13983398 -202.91233398 348.15466797 -202.31982422 347.13964844 C-197.38660903 338.67996057 -192.49374096 330.19727938 -187.60571289 321.71142578 C-182.85453949 313.46802621 -178.06710381 305.24636178 -173.26513672 297.0324707 C-169.02169905 289.76794811 -164.81877283 282.48078008 -160.625 275.1875 C-155.50721336 266.2909868 -150.31342418 257.44353161 -145.0625 248.625 C-138.88090391 238.23961775 -132.84146782 227.78238963 -126.86401367 217.27880859 C-120.88975209 206.78334836 -114.81507116 196.34852473 -108.71337891 185.92675781 C-105.82618822 180.9949194 -102.94352583 176.06044184 -100.0625 171.125 C-99.19987549 169.64725098 -99.19987549 169.64725098 -98.31982422 168.13964844 C-93.38660903 159.67996057 -88.49374096 151.19727938 -83.60571289 142.71142578 C-78.85453949 134.46802621 -74.06710381 126.24636178 -69.26513672 118.0324707 C-65.02169905 110.76794811 -60.81877283 103.48078008 -56.625 96.1875 C-51.50721336 87.2909868 -46.31342418 78.44353161 -41.0625 69.625 C-35.57438555 60.40470066 -30.1825414 51.1374816 -24.875 41.8125 C-19.68029729 32.68796093 -14.46536428 23.57673616 -9.1875 14.5 C-8.31617432 12.99530151 -8.31617432 12.99530151 -7.42724609 11.46020508 C-6.61827881 10.07224731 -6.61827881 10.07224731 -5.79296875 8.65625 C-5.3239917 7.84994141 -4.85501465 7.04363281 -4.37182617 6.21289062 C-3.01516986 4.02447047 -1.66705239 1.96420918 0 0 Z " fill="#F06331" transform="translate(1391,806)"/>
</svg>
